<svg width="1200" height="701" viewBox="0 0 1200 701" fill="none" xmlns="http://www.w3.org/2000/svg">
<path d="M599.362 107.981C599.999 107.703 600.723 107.703 601.36 107.981L1153.21 348.517C1155.21 349.389 1155.21 352.228 1153.21 353.1L601.36 593.636C600.723 593.914 599.999 593.914 599.362 593.636L47.5093 353.1C45.5078 352.228 45.5078 349.389 47.5093 348.517L599.362 107.981Z" stroke="url(#paint0_linear_5_20)"/>
<path d="M581.073 108.63C581.688 108.31 582.411 108.261 583.067 108.496L1151.07 311.533C1153.13 312.269 1153.34 315.1 1151.41 316.104L618.396 592.968C617.78 593.287 617.058 593.336 616.402 593.101L48.3944 390.065C46.3344 389.328 46.128 386.498 48.061 385.494L581.072 108.63L580.84 108.186L581.073 108.63Z" stroke="url(#paint1_linear_5_20)"/>
<path d="M564.068 110.456C564.66 110.095 565.378 109.999 566.051 110.189L1147.45 274.738C1149.56 275.334 1149.97 278.141 1148.11 279.272L636.537 591.116C635.945 591.477 635.227 591.574 634.554 591.384L53.1571 426.835C51.0488 426.238 50.6375 423.432 52.4926 422.301L564.068 110.456Z" stroke="url(#paint2_linear_5_20)"/>
<path d="M546.369 113.642C546.934 113.241 547.646 113.096 548.332 113.241L1140.29 238.501C1142.44 238.955 1143.05 241.721 1141.28 242.973L653.631 588.281C653.066 588.681 652.354 588.827 651.668 588.681L59.711 463.422C57.5647 462.968 56.9516 460.202 58.7196 458.95L546.369 113.642Z" stroke="url(#paint3_linear_5_20)"/>
<path d="M485.48 310.808C486.59 310.808 487.507 311.192 488.232 311.96C488.958 312.685 489.32 313.603 489.32 314.712V328.28C489.32 329.773 488.659 330.925 487.336 331.736C483.155 334.339 478.568 335.64 473.576 335.64C469.352 335.64 465.448 334.616 461.864 332.568C458.28 330.477 455.443 327.683 453.352 324.184C451.262 320.643 450.216 316.781 450.216 312.6C450.216 308.419 451.262 304.579 453.352 301.08C455.443 297.539 458.28 294.744 461.864 292.696C465.448 290.605 469.352 289.56 473.576 289.56C477.8 289.56 481.47 290.413 484.584 292.12C485.224 292.461 485.694 292.909 485.992 293.464C486.334 294.019 486.504 294.616 486.504 295.256C486.504 296.323 486.142 297.261 485.416 298.072C484.734 298.84 483.88 299.224 482.856 299.224C482.216 299.224 481.512 299.053 480.744 298.712C478.44 297.731 476.051 297.24 473.576 297.24C470.846 297.24 468.328 297.944 466.024 299.352C463.72 300.717 461.886 302.573 460.52 304.92C459.198 307.267 458.536 309.827 458.536 312.6C458.536 315.373 459.198 317.933 460.52 320.28C461.886 322.627 463.72 324.504 466.024 325.912C468.328 327.277 470.846 327.96 473.576 327.96C474.771 327.96 476.051 327.853 477.416 327.64C478.782 327.427 479.976 327.149 481 326.808V318.488H474.984C473.875 318.488 472.936 318.125 472.168 317.4C471.443 316.675 471.08 315.757 471.08 314.648C471.08 313.539 471.443 312.621 472.168 311.896C472.936 311.171 473.875 310.808 474.984 310.808H485.48ZM521.787 300.76C522.896 300.76 523.813 301.144 524.539 301.912C525.264 302.637 525.627 303.555 525.627 304.664V320.92C525.627 325.528 524.347 329.133 521.787 331.736C519.269 334.339 515.664 335.64 510.971 335.64C506.277 335.64 502.672 334.339 500.155 331.736C497.637 329.133 496.379 325.528 496.379 320.92V304.664C496.379 303.555 496.741 302.637 497.467 301.912C498.192 301.144 499.109 300.76 500.219 300.76C501.328 300.76 502.245 301.144 502.971 301.912C503.696 302.637 504.059 303.555 504.059 304.664V320.92C504.059 323.523 504.635 325.464 505.787 326.744C506.939 327.981 508.667 328.6 510.971 328.6C513.317 328.6 515.067 327.981 516.219 326.744C517.371 325.464 517.947 323.523 517.947 320.92V304.664C517.947 303.555 518.309 302.637 519.035 301.912C519.76 301.144 520.677 300.76 521.787 300.76ZM541.173 331.096C541.173 332.205 540.811 333.144 540.085 333.912C539.36 334.637 538.443 335 537.333 335C536.224 335 535.307 334.637 534.581 333.912C533.856 333.144 533.493 332.205 533.493 331.096V304.664C533.493 303.555 533.856 302.637 534.581 301.912C535.307 301.144 536.224 300.76 537.333 300.76C538.443 300.76 539.36 301.144 540.085 301.912C540.811 302.637 541.173 303.555 541.173 304.664V331.096ZM537.269 296.6C535.819 296.6 534.795 296.365 534.197 295.896C533.6 295.427 533.301 294.595 533.301 293.4V292.184C533.301 290.989 533.621 290.157 534.261 289.688C534.901 289.219 535.925 288.984 537.333 288.984C538.827 288.984 539.872 289.219 540.469 289.688C541.067 290.157 541.365 290.989 541.365 292.184V293.4C541.365 294.637 541.045 295.491 540.405 295.96C539.808 296.387 538.763 296.6 537.269 296.6ZM557.386 331.096C557.386 332.205 557.002 333.144 556.234 333.912C555.509 334.637 554.592 335 553.482 335C552.416 335 551.52 334.637 550.794 333.912C550.069 333.144 549.706 332.205 549.706 331.096V291.544C549.706 290.435 550.069 289.517 550.794 288.792C551.562 288.024 552.501 287.64 553.61 287.64C554.677 287.64 555.573 288.024 556.298 288.792C557.024 289.517 557.386 290.435 557.386 291.544V331.096ZM574.636 331.096C574.636 332.205 574.252 333.144 573.484 333.912C572.759 334.637 571.842 335 570.732 335C569.666 335 568.77 334.637 568.044 333.912C567.319 333.144 566.956 332.205 566.956 331.096V291.544C566.956 290.435 567.319 289.517 568.044 288.792C568.812 288.024 569.751 287.64 570.86 287.64C571.927 287.64 572.823 288.024 573.548 288.792C574.274 289.517 574.636 290.435 574.636 291.544V331.096ZM611.278 300.12C612.388 300.12 613.305 300.483 614.03 301.208C614.756 301.933 615.118 302.872 615.118 304.024V331.096C615.118 332.205 614.756 333.144 614.03 333.912C613.305 334.637 612.388 335 611.278 335C610.169 335 609.252 334.637 608.526 333.912C607.844 333.187 607.481 332.269 607.438 331.16C606.372 332.397 604.921 333.464 603.086 334.36C601.294 335.213 599.396 335.64 597.39 335.64C594.446 335.64 591.78 334.893 589.39 333.4C587.001 331.864 585.102 329.752 583.694 327.064C582.329 324.376 581.646 321.325 581.646 317.912C581.646 314.499 582.329 311.448 583.694 308.76C585.06 306.029 586.916 303.917 589.262 302.424C591.652 300.888 594.276 300.12 597.134 300.12C599.182 300.12 601.102 300.504 602.894 301.272C604.686 301.997 606.201 302.936 607.438 304.088V304.024C607.438 302.915 607.801 301.997 608.526 301.272C609.252 300.504 610.169 300.12 611.278 300.12ZM598.35 328.6C601.124 328.6 603.385 327.597 605.134 325.592C606.884 323.544 607.758 320.984 607.758 317.912C607.758 314.84 606.884 312.28 605.134 310.232C603.385 308.184 601.124 307.16 598.35 307.16C595.62 307.16 593.38 308.184 591.63 310.232C589.881 312.28 589.006 314.84 589.006 317.912C589.006 320.984 589.86 323.544 591.566 325.592C593.316 327.597 595.577 328.6 598.35 328.6ZM648.224 300.76C649.334 300.76 650.251 301.144 650.976 301.912C651.702 302.637 652.064 303.555 652.064 304.664V320.92C652.064 325.528 650.784 329.133 648.224 331.736C645.707 334.339 642.102 335.64 637.408 335.64C632.715 335.64 629.11 334.339 626.592 331.736C624.075 329.133 622.816 325.528 622.816 320.92V304.664C622.816 303.555 623.179 302.637 623.904 301.912C624.63 301.144 625.547 300.76 626.656 300.76C627.766 300.76 628.683 301.144 629.408 301.912C630.134 302.637 630.496 303.555 630.496 304.664V320.92C630.496 323.523 631.072 325.464 632.224 326.744C633.376 327.981 635.104 328.6 637.408 328.6C639.755 328.6 641.504 327.981 642.656 326.744C643.808 325.464 644.384 323.523 644.384 320.92V304.664C644.384 303.555 644.747 302.637 645.472 301.912C646.198 301.144 647.115 300.76 648.224 300.76ZM699.867 300.12C704.091 300.12 707.013 301.421 708.635 304.024C710.256 306.584 711.067 310.147 711.067 314.712V331.096C711.067 332.205 710.704 333.144 709.979 333.912C709.253 334.637 708.336 335 707.227 335C706.117 335 705.2 334.637 704.475 333.912C703.749 333.144 703.387 332.205 703.387 331.096V314.712C703.387 312.365 702.917 310.531 701.979 309.208C701.083 307.843 699.483 307.16 697.179 307.16C694.789 307.16 692.912 307.885 691.547 309.336C690.224 310.744 689.563 312.536 689.563 314.712V331.096C689.563 332.205 689.2 333.144 688.475 333.912C687.749 334.637 686.832 335 685.723 335C684.613 335 683.696 334.637 682.971 333.912C682.245 333.144 681.883 332.205 681.883 331.096V314.712C681.883 312.365 681.413 310.531 680.475 309.208C679.579 307.843 677.979 307.16 675.675 307.16C673.285 307.16 671.408 307.885 670.043 309.336C668.72 310.744 668.059 312.536 668.059 314.712V331.096C668.059 332.205 667.696 333.144 666.971 333.912C666.245 334.637 665.328 335 664.219 335C663.109 335 662.192 334.637 661.467 333.912C660.741 333.144 660.379 332.205 660.379 331.096V304.664C660.379 303.555 660.741 302.637 661.467 301.912C662.192 301.144 663.109 300.76 664.219 300.76C665.328 300.76 666.245 301.144 666.971 301.912C667.696 302.637 668.059 303.555 668.059 304.664V305.688C669.211 304.152 670.661 302.851 672.411 301.784C674.203 300.675 676.187 300.12 678.363 300.12C683.739 300.12 687.173 302.467 688.667 307.16C689.648 305.368 691.12 303.747 693.083 302.296C695.088 300.845 697.349 300.12 699.867 300.12ZM750.099 317.08C750.056 318.104 749.651 318.936 748.883 319.576C748.115 320.216 747.219 320.536 746.195 320.536H725.075C725.587 323.053 726.76 325.037 728.595 326.488C730.429 327.896 732.499 328.6 734.803 328.6C736.552 328.6 737.917 328.451 738.899 328.152C739.88 327.811 740.648 327.469 741.203 327.128C741.8 326.744 742.205 326.488 742.419 326.36C743.187 325.976 743.912 325.784 744.595 325.784C745.491 325.784 746.259 326.104 746.899 326.744C747.539 327.384 747.859 328.131 747.859 328.984C747.859 330.136 747.261 331.181 746.067 332.12C744.872 333.101 743.272 333.933 741.267 334.616C739.261 335.299 737.235 335.64 735.187 335.64C731.603 335.64 728.467 334.893 725.779 333.4C723.133 331.907 721.085 329.859 719.635 327.256C718.184 324.611 717.459 321.645 717.459 318.36C717.459 314.691 718.227 311.469 719.763 308.696C721.299 305.923 723.325 303.811 725.843 302.36C728.36 300.867 731.048 300.12 733.907 300.12C736.723 300.12 739.368 300.888 741.843 302.424C744.36 303.96 746.365 306.029 747.859 308.632C749.352 311.235 750.099 314.051 750.099 317.08ZM733.907 307.16C728.957 307.16 726.035 309.485 725.139 314.136H741.907V313.688C741.736 311.896 740.861 310.36 739.283 309.08C737.704 307.8 735.912 307.16 733.907 307.16ZM525.984 370.2C528.16 370.2 530.229 370.861 532.192 372.184C534.154 373.464 535.733 375.213 536.928 377.432C538.122 379.608 538.72 381.997 538.72 384.6C538.72 387.16 538.122 389.549 536.928 391.768C535.733 393.987 534.154 395.757 532.192 397.08C530.229 398.36 528.16 399 525.984 399H514.848V411.096C514.848 412.248 514.506 413.187 513.824 413.912C513.141 414.637 512.245 415 511.135 415C510.069 415 509.194 414.637 508.512 413.912C507.829 413.144 507.488 412.205 507.488 411.096V374.104C507.488 372.995 507.85 372.077 508.576 371.352C509.344 370.584 510.282 370.2 511.392 370.2H525.984ZM525.984 391.704C526.794 391.704 527.584 391.363 528.352 390.68C529.162 389.997 529.802 389.123 530.272 388.056C530.784 386.947 531.04 385.795 531.04 384.6C531.04 383.405 530.784 382.275 530.272 381.208C529.802 380.099 529.162 379.224 528.352 378.584C527.584 377.901 526.794 377.56 525.984 377.56H514.848V391.704H525.984ZM575.505 397.08C575.462 398.104 575.057 398.936 574.289 399.576C573.521 400.216 572.625 400.536 571.601 400.536H550.481C550.993 403.053 552.166 405.037 554.001 406.488C555.836 407.896 557.905 408.6 560.209 408.6C561.958 408.6 563.324 408.451 564.305 408.152C565.286 407.811 566.054 407.469 566.609 407.128C567.206 406.744 567.612 406.488 567.825 406.36C568.593 405.976 569.318 405.784 570.001 405.784C570.897 405.784 571.665 406.104 572.305 406.744C572.945 407.384 573.265 408.131 573.265 408.984C573.265 410.136 572.668 411.181 571.473 412.12C570.278 413.101 568.678 413.933 566.673 414.616C564.668 415.299 562.641 415.64 560.593 415.64C557.009 415.64 553.873 414.893 551.185 413.4C548.54 411.907 546.492 409.859 545.041 407.256C543.59 404.611 542.865 401.645 542.865 398.36C542.865 394.691 543.633 391.469 545.169 388.696C546.705 385.923 548.732 383.811 551.249 382.36C553.766 380.867 556.454 380.12 559.313 380.12C562.129 380.12 564.774 380.888 567.249 382.424C569.766 383.96 571.772 386.029 573.265 388.632C574.758 391.235 575.505 394.051 575.505 397.08ZM559.313 387.16C554.364 387.16 551.441 389.485 550.545 394.136H567.313V393.688C567.142 391.896 566.268 390.36 564.689 389.08C563.11 387.8 561.318 387.16 559.313 387.16ZM599.702 380.12C600.982 380.12 602.049 380.483 602.902 381.208C603.798 381.933 604.246 382.787 604.246 383.768C604.246 385.091 603.905 386.093 603.222 386.776C602.539 387.416 601.729 387.736 600.79 387.736C600.15 387.736 599.425 387.587 598.614 387.288C598.486 387.245 598.187 387.16 597.718 387.032C597.291 386.904 596.822 386.84 596.31 386.84C595.201 386.84 594.134 387.181 593.11 387.864C592.086 388.547 591.233 389.592 590.55 391C589.91 392.365 589.59 394.008 589.59 395.928V411.096C589.59 412.205 589.227 413.144 588.502 413.912C587.777 414.637 586.859 415 585.75 415C584.641 415 583.723 414.637 582.998 413.912C582.273 413.144 581.91 412.205 581.91 411.096V384.664C581.91 383.555 582.273 382.637 582.998 381.912C583.723 381.144 584.641 380.76 585.75 380.76C586.859 380.76 587.777 381.144 588.502 381.912C589.227 382.637 589.59 383.555 589.59 384.664V385.496C590.571 383.747 591.979 382.424 593.814 381.528C595.649 380.589 597.611 380.12 599.702 380.12ZM627.452 380.12C628.732 380.12 629.799 380.483 630.652 381.208C631.548 381.933 631.996 382.787 631.996 383.768C631.996 385.091 631.655 386.093 630.972 386.776C630.289 387.416 629.479 387.736 628.54 387.736C627.9 387.736 627.175 387.587 626.364 387.288C626.236 387.245 625.937 387.16 625.468 387.032C625.041 386.904 624.572 386.84 624.06 386.84C622.951 386.84 621.884 387.181 620.86 387.864C619.836 388.547 618.983 389.592 618.3 391C617.66 392.365 617.34 394.008 617.34 395.928V411.096C617.34 412.205 616.977 413.144 616.252 413.912C615.527 414.637 614.609 415 613.5 415C612.391 415 611.473 414.637 610.748 413.912C610.023 413.144 609.66 412.205 609.66 411.096V384.664C609.66 383.555 610.023 382.637 610.748 381.912C611.473 381.144 612.391 380.76 613.5 380.76C614.609 380.76 615.527 381.144 616.252 381.912C616.977 382.637 617.34 383.555 617.34 384.664V385.496C618.321 383.747 619.729 382.424 621.564 381.528C623.399 380.589 625.361 380.12 627.452 380.12ZM668.869 397.912C668.869 401.325 668.101 404.397 666.565 407.128C665.029 409.816 662.917 411.907 660.229 413.4C657.583 414.893 654.661 415.64 651.461 415.64C648.218 415.64 645.274 414.893 642.629 413.4C639.983 411.907 637.893 409.816 636.357 407.128C634.821 404.397 634.053 401.325 634.053 397.912C634.053 394.499 634.821 391.448 636.357 388.76C637.893 386.029 639.983 383.917 642.629 382.424C645.274 380.888 648.218 380.12 651.461 380.12C654.661 380.12 657.583 380.888 660.229 382.424C662.917 383.917 665.029 386.029 666.565 388.76C668.101 391.448 668.869 394.499 668.869 397.912ZM661.189 397.912C661.189 395.821 660.741 393.965 659.845 392.344C658.991 390.68 657.818 389.4 656.325 388.504C654.874 387.608 653.253 387.16 651.461 387.16C649.669 387.16 648.026 387.608 646.533 388.504C645.082 389.4 643.909 390.68 643.013 392.344C642.159 393.965 641.733 395.821 641.733 397.912C641.733 400.003 642.159 401.859 643.013 403.48C643.909 405.101 645.082 406.36 646.533 407.256C648.026 408.152 649.669 408.6 651.461 408.6C653.253 408.6 654.874 408.152 656.325 407.256C657.818 406.36 658.991 405.101 659.845 403.48C660.741 401.859 661.189 400.003 661.189 397.912ZM691.797 407.768C692.394 407.768 692.928 408.067 693.397 408.664C693.909 409.219 694.165 409.965 694.165 410.904C694.165 412.056 693.525 413.037 692.245 413.848C691.008 414.616 689.6 415 688.021 415C685.376 415 683.136 414.445 681.301 413.336C679.509 412.184 678.613 409.773 678.613 406.104V388.44H675.669C674.645 388.44 673.792 388.099 673.109 387.416C672.426 386.733 672.085 385.88 672.085 384.856C672.085 383.875 672.426 383.064 673.109 382.424C673.792 381.741 674.645 381.4 675.669 381.4H678.613V377.304C678.613 376.195 678.976 375.277 679.701 374.552C680.469 373.784 681.408 373.4 682.517 373.4C683.584 373.4 684.48 373.784 685.205 374.552C685.93 375.277 686.293 376.195 686.293 377.304V381.4H690.837C691.861 381.4 692.714 381.741 693.397 382.424C694.08 383.107 694.421 383.96 694.421 384.984C694.421 385.965 694.08 386.797 693.397 387.48C692.714 388.12 691.861 388.44 690.837 388.44H686.293V405.784C686.293 406.68 686.528 407.341 686.997 407.768C687.466 408.152 688.106 408.344 688.917 408.344C689.258 408.344 689.728 408.259 690.325 408.088C690.837 407.875 691.328 407.768 691.797 407.768Z" fill="url(#paint4_linear_5_20)"/>
<defs>
<linearGradient id="paint0_linear_5_20" x1="600.361" y1="107" x2="600.361" y2="594.617" gradientUnits="userSpaceOnUse">
<stop stop-color="#5229A3"/>
<stop offset="1" stop-color="#8F29A3"/>
</linearGradient>
<linearGradient id="paint1_linear_5_20" x1="581.998" y1="107.584" x2="614.628" y2="594.204" gradientUnits="userSpaceOnUse">
<stop stop-color="#5229A3"/>
<stop offset="1" stop-color="#8F29A3"/>
</linearGradient>
<linearGradient id="paint2_linear_5_20" x1="564.917" y1="109.351" x2="630.094" y2="592.976" gradientUnits="userSpaceOnUse">
<stop stop-color="#5229A3"/>
<stop offset="1" stop-color="#8F29A3"/>
</linearGradient>
<linearGradient id="paint3_linear_5_20" x1="547.137" y1="112.481" x2="644.693" y2="591.107" gradientUnits="userSpaceOnUse">
<stop stop-color="#5229A3"/>
<stop offset="1" stop-color="#8F29A3"/>
</linearGradient>
<linearGradient id="paint4_linear_5_20" x1="366" y1="308.895" x2="743.559" y2="549.665" gradientUnits="userSpaceOnUse">
<stop stop-color="#8F29A3"/>
<stop offset="1" stop-color="#5229A3"/>
</linearGradient>
</defs>
</svg>
